<svg id="Layer_2" data-name="Layer 2" xmlns="http://www.w3.org/2000/svg" viewBox="0 0 1248.88 1082.06"><defs><style>.cls-1,.cls-2{fill:none;stroke:#85ca9a;stroke-miterlimit:10;}.cls-1{stroke-width:71px;}.cls-2{stroke-width:65px;}</style></defs><ellipse class="cls-1" cx="625.58" cy="598.06" rx="291.83" ry="309.98"/><path class="cls-1" d="M1127.17,720s33.84-141.53,216-124.8" transform="translate(-654.42 -181.81)"/><path class="cls-2" d="M1219.5,214.31s-271.32,37.34-352.26,320.9C797.4,779.87,929.31,928.27,1127.17,1044" transform="translate(-654.42 -181.81)"/><path class="cls-2" d="M1466.83,214.31H1330l-37.93,98.93s290.06-20.94,412.22,308.34c113.77,306.69-119,587.3-361.1,606.78-286.9,23.08-355-94-355-94" transform="translate(-654.42 -181.81)"/><polyline class="cls-2" points="136.38 276.53 32.5 276.53 32.5 899.8 227.06 899.8"/><polyline class="cls-2" points="1079.19 276.53 1216.38 276.53 1216.38 899.8 1079.19 899.8"/></svg>